
<svg width="60" height="37" viewBox="0 0 60 37" fill="none" xmlns="http://www.w3.org/2000/svg">
<g clip-path="url(#clip0)">
<path d="M34.4533 7.34517L19.0554 12.7932C18.1803 13.1029 17.4641 13.7474 17.0642 14.5852C16.6644 15.4229 16.6137 16.3852 16.9233 17.2602L20.8148 28.2588C21.1244 29.1339 21.769 29.8501 22.6067 30.25C23.4444 30.6498 24.4067 30.7005 25.2818 30.3909L40.6797 24.9428C41.5548 24.6332 42.2711 23.9886 42.6709 23.1509C43.0708 22.3131 43.1215 21.3509 42.8118 20.4758L38.9203 9.47727C38.6107 8.60218 37.9661 7.88592 37.1284 7.48607C36.2907 7.08622 35.3284 7.03554 34.4533 7.34517ZM24.5035 28.1912C24.2118 28.2944 23.891 28.2775 23.6118 28.1442C23.3326 28.0109 23.1177 27.7722 23.0145 27.4805L22.0728 24.8188L24.422 19.9161C24.5563 19.6419 24.7927 19.4312 25.0806 19.3293C25.3685 19.2275 25.6849 19.2425 25.9618 19.3713L35.953 24.1401L24.5035 28.1912ZM40.6121 21.2541C40.7153 21.5458 40.6984 21.8665 40.5652 22.1458C40.4319 22.425 40.1931 22.6399 39.9014 22.7431L39.0545 23.0427L33.3737 20.313L33.9991 19.0026C34.1334 18.7284 34.3698 18.5177 34.6577 18.4158C34.9456 18.314 35.262 18.3291 35.5389 18.4578L40.4487 20.7922L40.6121 21.2541ZM39.3513 17.6906L36.5559 16.3654C35.7159 15.985 34.7614 15.9443 33.8921 16.2519C33.0228 16.5594 32.3063 17.1914 31.8925 18.0154L31.2671 19.3258L26.9787 17.2789C26.1388 16.8985 25.1842 16.8578 24.315 17.1653C23.4457 17.4729 22.7291 18.1049 22.3154 18.9289L20.9754 21.7172L19.123 16.482C19.0198 16.1903 19.0367 15.8695 19.17 15.5903C19.3033 15.311 19.542 15.0962 19.8337 14.993L35.2316 9.54487C35.5233 9.44166 35.8441 9.45856 36.1233 9.59184C36.4026 9.72512 36.6174 9.96387 36.7206 10.2556L39.3513 17.6906Z" fill="#C8D0D8"/>
</g>
<circle cx="5" cy="11" r="5" fill="#D7DEE3"/>
<circle cx="51" cy="16" r="5" fill="#D7DEE3"/>
<circle cx="17" cy="3" r="3" fill="#D7DEE3"/>
<circle cx="57" cy="28" r="3" fill="#D7DEE3"/>
<circle cx="44" cy="32" r="3" fill="#D7DEE3"/>
<defs>
<clipPath id="clip0">
<rect width="28" height="28" fill="white" transform="translate(12 10.3396) rotate(-19.4848)"/>
</clipPath>
</defs>
</svg>
