<svg width="133" height="324" viewBox="0 0 133 324" fill="none" xmlns="http://www.w3.org/2000/svg">
<path d="M93.387 47.666V81.036H40.012V47.666H29.375V123.164H104.016V47.666H93.387Z" fill="#FF6969"/>
<path d="M40.012 47.666H29.383V67.962H40.012V47.666Z" fill="#BC3737"/>
<path d="M104.016 47.666H93.387V67.962H104.016V47.666Z" fill="#BC3737"/>
<path d="M103.866 131.868H66.7H29.533L0.577026 349.402H66.7H132.822L103.866 131.868Z" fill="url(#paint0_linear_10032_6197)"/>
<path d="M12.23 261.88H121.17L112.518 196.914H20.873L12.23 261.88Z" fill="#FF6969"/>
<path d="M73.533 174.402H59.726V156.631C59.726 154.8 60.453 153.044 61.748 151.75C63.042 150.455 64.798 149.728 66.629 149.728C68.46 149.728 70.216 150.455 71.511 151.75C72.805 153.044 73.533 154.8 73.533 156.631V174.402Z" fill="#333333"/>
<path d="M73.533 240.64H59.726V222.869C59.726 221.038 60.453 219.282 61.748 217.987C63.042 216.692 64.798 215.965 66.629 215.965C68.46 215.965 70.216 216.692 71.511 217.987C72.805 219.282 73.533 221.038 73.533 222.869V240.64Z" fill="#333333"/>
<path d="M57.748 296.531H75.501C75.946 296.531 76.373 296.707 76.687 297.022C77.002 297.336 77.179 297.763 77.179 298.208V336.593H56.071V298.234C56.067 298.012 56.108 297.791 56.191 297.584C56.273 297.378 56.396 297.19 56.552 297.031C56.708 296.873 56.895 296.747 57.1 296.661C57.305 296.575 57.525 296.53 57.748 296.531Z" fill="#333333"/>
<path d="M120.242 123.164V97.88C120.242 97.187 119.971 96.521 119.485 96.026C119 95.531 118.34 95.246 117.647 95.232H15.797C15.103 95.246 14.443 95.531 13.958 96.026C13.473 96.521 13.201 97.187 13.201 97.88V123.164H7.69202V132.804H125.751V123.164H120.242ZM113.427 102.091V123.164H87.393V102.091H113.427ZM80.577 102.091V123.164H52.822V102.091H80.577ZM19.972 102.091H46.006V123.164H19.972V102.091Z" fill="#BC3737"/>
<path d="M61.588 2.925L8.46003 53.36C8.10303 53.718 7.85799 54.173 7.75599 54.669C7.65499 55.164 7.70098 55.679 7.88898 56.149C8.07698 56.619 8.39803 57.023 8.81403 57.312C9.22903 57.601 9.72002 57.761 10.226 57.774H123.164C123.67 57.761 124.161 57.601 124.577 57.312C124.992 57.023 125.314 56.619 125.502 56.149C125.69 55.679 125.736 55.164 125.634 54.669C125.532 54.173 125.288 53.718 124.93 53.36L71.811 2.925C70.431 1.615 68.602 0.885002 66.7 0.885002C64.797 0.885002 62.968 1.615 61.588 2.925Z" fill="#FF6969"/>
<defs>
<linearGradient id="paint0_linear_10032_6197" x1="66.7" y1="131.868" x2="66.7" y2="349.402" gradientUnits="userSpaceOnUse">
<stop stop-color="white"/>
<stop offset="1" stop-color="#EFDEDE"/>
</linearGradient>
</defs>
</svg>
