<svg width="500" height="500" viewBox="0 0 500 500" fill="none" xmlns="http://www.w3.org/2000/svg">
<path d="M500 382.4H0V382.65H500V382.4Z" fill="#EBEBEB"/>
<path d="M449.9 398.49H416.78V398.74H449.9V398.49Z" fill="#EBEBEB"/>
<path d="M331.22 401.21H322.53V401.46H331.22V401.21Z" fill="#EBEBEB"/>
<path d="M415.78 389.21H396.59V389.46H415.78V389.21Z" fill="#EBEBEB"/>
<path d="M95.65 390.89H52.46V391.14H95.65V390.89Z" fill="#EBEBEB"/>
<path d="M110.89 390.89H104.56V391.14H110.89V390.89Z" fill="#EBEBEB"/>
<path d="M225.15 395.11H131.47V395.36H225.15V395.11Z" fill="#EBEBEB"/>
<path d="M455.68 382.59C443.52 374.69 385.17 337.21 374.87 339.95C363.37 343.01 356.26 345.72 356.26 345.72C356.26 345.72 304.09 296.85 291.61 297.53C279.13 298.21 213.88 355.75 213.88 355.75C213.88 355.75 161.49 330.4 152.82 331.3C145.11 332.09 69.4 373.4 52.62 382.59H455.68Z" fill="#F5F5F5"/>
<path d="M332.32 134.7C332.32 134.092 332.2 133.491 331.967 132.93C331.735 132.368 331.393 131.859 330.963 131.43C330.533 131 330.023 130.66 329.461 130.429C328.899 130.197 328.298 130.079 327.69 130.08C327.24 130.081 326.792 130.145 326.36 130.27C326.432 129.8 326.469 129.325 326.47 128.85C326.472 127.409 326.155 125.986 325.543 124.681C324.931 123.377 324.039 122.224 322.93 121.304C321.821 120.384 320.523 119.721 319.128 119.36C317.733 119 316.276 118.952 314.86 119.22C313.892 117.639 312.437 116.415 310.714 115.731C308.991 115.048 307.093 114.942 305.304 115.431C303.516 115.919 301.935 116.974 300.798 118.439C299.661 119.903 299.03 121.696 299 123.55H298.85C297.814 123.55 296.788 123.754 295.831 124.151C294.873 124.547 294.004 125.128 293.271 125.861C292.538 126.594 291.957 127.463 291.561 128.421C291.164 129.378 290.96 130.404 290.96 131.44C290.96 132.476 291.164 133.502 291.561 134.459C291.957 135.417 292.538 136.286 293.271 137.019C294.004 137.752 294.873 138.333 295.831 138.729C296.788 139.126 297.814 139.33 298.85 139.33H327.85C329.051 139.291 330.189 138.786 331.024 137.921C331.858 137.057 332.323 135.901 332.32 134.7Z" fill="#F0F0F0"/>
<path d="M340.38 219.08C340.38 217.852 339.892 216.674 339.024 215.806C338.156 214.938 336.978 214.45 335.75 214.45C335.299 214.45 334.851 214.517 334.42 214.65C334.488 214.18 334.522 213.705 334.52 213.23C334.523 211.79 334.208 210.366 333.597 209.062C332.986 207.758 332.095 206.604 330.987 205.684C329.879 204.764 328.581 204.1 327.187 203.74C325.792 203.38 324.335 203.332 322.92 203.6C321.964 201.991 320.507 200.739 318.772 200.036C317.037 199.334 315.12 199.219 313.313 199.711C311.507 200.202 309.912 201.272 308.771 202.756C307.631 204.241 307.009 206.058 307 207.93H306.86C304.767 207.93 302.761 208.761 301.281 210.241C299.801 211.721 298.97 213.727 298.97 215.82C298.97 217.913 299.801 219.919 301.281 221.399C302.761 222.879 304.767 223.71 306.86 223.71H335.86C337.069 223.681 338.218 223.181 339.063 222.316C339.908 221.45 340.38 220.289 340.38 219.08Z" fill="#F0F0F0"/>
<path d="M125.24 264.54C125.24 263.312 124.752 262.134 123.884 261.266C123.016 260.398 121.838 259.91 120.61 259.91C120.159 259.91 119.711 259.977 119.28 260.11C119.352 259.64 119.389 259.165 119.39 258.69C119.39 256.091 118.357 253.598 116.52 251.76C114.682 249.922 112.189 248.89 109.59 248.89C108.986 248.89 108.383 248.947 107.79 249.06C106.822 247.477 105.366 246.25 103.641 245.566C101.916 244.881 100.015 244.775 98.2243 245.263C96.4338 245.751 94.8501 246.808 93.7114 248.273C92.5727 249.739 91.9406 251.534 91.91 253.39H91.76C89.7147 253.463 87.7775 254.326 86.3564 255.799C84.9352 257.272 84.141 259.238 84.141 261.285C84.141 263.332 84.9352 265.298 86.3564 266.771C87.7775 268.243 89.7147 269.107 91.76 269.18H120.76C121.964 269.143 123.107 268.638 123.944 267.771C124.781 266.904 125.246 265.745 125.24 264.54Z" fill="#F0F0F0"/>
<path d="M226.91 170.85C226.907 169.624 226.418 168.449 225.55 167.583C224.682 166.716 223.506 166.23 222.28 166.23C221.83 166.231 221.382 166.295 220.95 166.42C221.019 165.95 221.052 165.475 221.05 165C221.053 163.56 220.738 162.136 220.127 160.832C219.516 159.528 218.625 158.374 217.517 157.454C216.409 156.534 215.111 155.87 213.717 155.51C212.322 155.15 210.865 155.102 209.45 155.37C208.484 153.784 207.029 152.555 205.304 151.869C203.579 151.183 201.677 151.076 199.886 151.564C198.095 152.053 196.511 153.111 195.374 154.578C194.236 156.046 193.607 157.843 193.58 159.7H193.43C191.385 159.773 189.448 160.636 188.026 162.109C186.605 163.582 185.811 165.548 185.811 167.595C185.811 169.642 186.605 171.608 188.026 173.081C189.448 174.553 191.385 175.417 193.43 175.49H222.43C223.634 175.451 224.774 174.945 225.611 174.078C226.447 173.212 226.913 172.054 226.91 170.85Z" fill="#F0F0F0"/>
<path d="M407.94 281.62C407.94 281.012 407.82 280.411 407.587 279.85C407.355 279.289 407.013 278.779 406.583 278.35C406.153 277.92 405.643 277.58 405.081 277.349C404.519 277.117 403.918 276.999 403.31 277C402.86 277.001 402.412 277.065 401.98 277.19C402.052 276.72 402.089 276.245 402.09 275.77C402.092 274.329 401.775 272.906 401.163 271.602C400.551 270.297 399.659 269.144 398.55 268.224C397.441 267.304 396.143 266.641 394.748 266.28C393.353 265.92 391.896 265.872 390.48 266.14C389.514 264.554 388.059 263.325 386.334 262.639C384.609 261.953 382.707 261.846 380.916 262.334C379.125 262.823 377.541 263.881 376.404 265.348C375.266 266.816 374.637 268.613 374.61 270.47H374.46C372.415 270.543 370.478 271.406 369.056 272.879C367.635 274.352 366.841 276.318 366.841 278.365C366.841 280.412 367.635 282.378 369.056 283.851C370.478 285.324 372.415 286.187 374.46 286.26H403.46C404.663 286.221 405.804 285.715 406.641 284.848C407.477 283.982 407.943 282.824 407.94 281.62Z" fill="#F0F0F0"/>
<path d="M66.5 146.3C66.5 145.072 66.9878 143.894 67.8561 143.026C68.7244 142.158 69.9021 141.67 71.13 141.67C71.5776 141.67 72.0226 141.737 72.45 141.87C72.3865 141.399 72.3531 140.925 72.35 140.45C72.3455 139.004 72.6615 137.576 73.2751 136.267C73.8887 134.959 74.7849 133.802 75.8989 132.881C77.013 131.96 78.3173 131.298 79.7181 130.942C81.1189 130.585 82.5813 130.544 84 130.82C84.9638 129.229 86.4194 127.996 88.1465 127.307C89.8736 126.617 91.7783 126.509 93.5725 126.998C95.3667 127.487 96.9528 128.547 98.0908 130.018C99.2288 131.489 99.8569 133.29 99.88 135.15H100C102.093 135.15 104.099 135.981 105.579 137.461C107.059 138.94 107.89 140.947 107.89 143.04C107.89 145.132 107.059 147.139 105.579 148.619C104.099 150.099 102.093 150.93 100 150.93H71C69.7939 150.899 68.6479 150.397 67.807 149.531C66.9661 148.666 66.497 147.506 66.5 146.3Z" fill="#F0F0F0"/>
<path d="M431 136C430.997 135.24 430.694 134.511 430.156 133.973C429.619 133.436 428.89 133.133 428.13 133.13C427.849 133.128 427.569 133.169 427.3 133.25C427.344 132.959 427.367 132.665 427.37 132.37C427.37 131.569 427.212 130.777 426.905 130.037C426.599 129.298 426.149 128.626 425.583 128.06C425.016 127.494 424.344 127.046 423.604 126.741C422.864 126.435 422.071 126.279 421.27 126.28C420.894 126.278 420.519 126.312 420.15 126.38C419.551 125.391 418.647 124.624 417.573 124.196C416.5 123.767 415.316 123.699 414.201 124.003C413.085 124.307 412.1 124.966 411.392 125.88C410.685 126.794 410.294 127.914 410.28 129.07H410.19C408.927 129.127 407.735 129.669 406.862 130.582C405.989 131.496 405.502 132.711 405.502 133.975C405.502 135.239 405.989 136.454 406.862 137.368C407.735 138.281 408.927 138.823 410.19 138.88H428.19C428.942 138.862 429.656 138.55 430.181 138.012C430.706 137.474 431 136.752 431 136Z" fill="#F0F0F0"/>
<path d="M208.33 116.29C208.33 115.526 208.633 114.794 209.174 114.253C209.714 113.713 210.446 113.41 211.21 113.41C211.488 113.409 211.764 113.45 212.03 113.53C211.99 113.238 211.97 112.944 211.97 112.65C211.969 111.85 212.125 111.057 212.431 110.318C212.736 109.578 213.185 108.907 213.751 108.341C214.317 107.775 214.988 107.326 215.728 107.021C216.467 106.715 217.26 106.559 218.06 106.56C218.435 106.563 218.81 106.596 219.18 106.66C219.779 105.671 220.683 104.905 221.757 104.476C222.83 104.047 224.014 103.979 225.129 104.283C226.245 104.587 227.23 105.246 227.938 106.16C228.645 107.074 229.036 108.194 229.05 109.35H229.14C229.803 109.32 230.465 109.425 231.086 109.658C231.707 109.891 232.275 110.247 232.754 110.706C233.234 111.164 233.616 111.715 233.876 112.325C234.137 112.935 234.272 113.592 234.272 114.255C234.272 114.918 234.137 115.575 233.876 116.185C233.616 116.795 233.234 117.346 232.754 117.804C232.275 118.263 231.707 118.619 231.086 118.852C230.465 119.085 229.803 119.19 229.14 119.16H211.14C210.389 119.144 209.675 118.835 209.149 118.298C208.624 117.762 208.33 117.041 208.33 116.29Z" fill="#F0F0F0"/>
<path d="M241.07 264C241.07 263.622 241.145 263.248 241.289 262.899C241.434 262.55 241.647 262.234 241.914 261.967C242.182 261.7 242.499 261.489 242.849 261.346C243.198 261.202 243.572 261.129 243.95 261.13C244.228 261.129 244.504 261.17 244.77 261.25C244.73 260.955 244.71 260.658 244.71 260.36C244.71 258.745 245.352 257.196 246.494 256.054C247.636 254.912 249.185 254.27 250.8 254.27C251.176 254.271 251.551 254.308 251.92 254.38C252.519 253.391 253.423 252.624 254.497 252.196C255.57 251.767 256.754 251.699 257.869 252.003C258.985 252.307 259.97 252.966 260.678 253.88C261.385 254.794 261.776 255.914 261.79 257.07H261.88C263.182 257.07 264.431 257.587 265.352 258.508C266.273 259.429 266.79 260.678 266.79 261.98C266.79 263.282 266.273 264.531 265.352 265.452C264.431 266.373 263.182 266.89 261.88 266.89H243.88C243.127 266.872 242.41 266.559 241.885 266.018C241.36 265.478 241.067 264.754 241.07 264Z" fill="#F0F0F0"/>
<path d="M250 427.56C357.082 427.56 443.89 422.492 443.89 416.24C443.89 409.988 357.082 404.92 250 404.92C142.917 404.92 56.11 409.988 56.11 416.24C56.11 422.492 142.917 427.56 250 427.56Z" fill="#F5F5F5"/>
<path d="M240.9 363.33C233.35 363.33 227.53 363.33 227.16 363.27C227.027 363.251 226.908 363.181 226.827 363.074C226.746 362.967 226.711 362.833 226.73 362.7C226.749 362.567 226.819 362.448 226.926 362.367C227.033 362.286 227.167 362.251 227.3 362.27C228.3 362.38 259.94 362.32 276.5 362.27C276.567 362.267 276.634 362.278 276.696 362.302C276.758 362.326 276.815 362.363 276.863 362.41C276.911 362.457 276.949 362.513 276.974 362.575C276.999 362.637 277.011 362.703 277.01 362.77C277.007 362.902 276.954 363.028 276.861 363.121C276.767 363.214 276.642 363.267 276.51 363.27C273.34 363.28 254.38 363.33 240.9 363.33Z" fill="#00B8AD"/>
<path d="M228.58 366.48C228.447 366.48 228.32 366.427 228.226 366.334C228.133 366.24 228.08 366.113 228.08 365.98V362.8C228.08 362.667 228.133 362.54 228.226 362.447C228.32 362.353 228.447 362.3 228.58 362.3C228.712 362.303 228.838 362.356 228.931 362.449C229.024 362.543 229.077 362.668 229.08 362.8V366C229.072 366.128 229.017 366.249 228.924 366.338C228.831 366.427 228.709 366.478 228.58 366.48Z" fill="#00B8AD"/>
<path d="M232.2 366.48C232.067 366.48 231.94 366.427 231.846 366.334C231.753 366.24 231.7 366.113 231.7 365.98V362.8C231.7 362.667 231.753 362.54 231.846 362.447C231.94 362.353 232.067 362.3 232.2 362.3C232.332 362.303 232.458 362.356 232.551 362.449C232.644 362.543 232.697 362.668 232.7 362.8V366C232.692 366.128 232.637 366.249 232.544 366.338C232.451 366.427 232.328 366.478 232.2 366.48Z" fill="#00B8AD"/>
<path d="M235.82 366.48C235.687 366.48 235.56 366.427 235.466 366.334C235.373 366.24 235.32 366.113 235.32 365.98V362.8C235.32 362.667 235.373 362.54 235.466 362.447C235.56 362.353 235.687 362.3 235.82 362.3C235.953 362.3 236.08 362.353 236.174 362.447C236.267 362.54 236.32 362.667 236.32 362.8V366C236.315 366.129 236.26 366.251 236.167 366.341C236.073 366.43 235.949 366.48 235.82 366.48Z" fill="#00B8AD"/>
<path d="M239.44 366.48C239.308 366.478 239.182 366.424 239.089 366.331C238.996 366.238 238.943 366.112 238.94 365.98V362.8C238.943 362.668 238.996 362.543 239.089 362.449C239.182 362.356 239.308 362.303 239.44 362.3C239.573 362.3 239.7 362.353 239.794 362.447C239.887 362.54 239.94 362.667 239.94 362.8V366C239.935 366.129 239.88 366.251 239.787 366.341C239.693 366.43 239.569 366.48 239.44 366.48Z" fill="#00B8AD"/>
<path d="M243.06 366.48C242.928 366.478 242.802 366.424 242.709 366.331C242.616 366.238 242.563 366.112 242.56 365.98V362.8C242.563 362.668 242.616 362.543 242.709 362.449C242.802 362.356 242.928 362.303 243.06 362.3C243.193 362.3 243.32 362.353 243.414 362.447C243.507 362.54 243.56 362.667 243.56 362.8V366C243.555 366.129 243.5 366.251 243.407 366.341C243.313 366.43 243.189 366.48 243.06 366.48Z" fill="#00B8AD"/>
<path d="M246.69 366.48C246.557 366.48 246.43 366.427 246.336 366.334C246.243 366.24 246.19 366.113 246.19 365.98V362.8C246.19 362.667 246.243 362.54 246.336 362.447C246.43 362.353 246.557 362.3 246.69 362.3C246.822 362.303 246.948 362.356 247.041 362.449C247.134 362.543 247.187 362.668 247.19 362.8V366C247.182 366.128 247.127 366.249 247.034 366.338C246.941 366.427 246.818 366.478 246.69 366.48Z" fill="#00B8AD"/>
<path d="M250.31 366.48C250.177 366.48 250.05 366.427 249.956 366.334C249.863 366.24 249.81 366.113 249.81 365.98V362.8C249.81 362.667 249.863 362.54 249.956 362.447C250.05 362.353 250.177 362.3 250.31 362.3C250.442 362.303 250.568 362.356 250.661 362.449C250.754 362.543 250.807 362.668 250.81 362.8V366C250.802 366.128 250.747 366.249 250.654 366.338C250.561 366.427 250.438 366.478 250.31 366.48Z" fill="#00B8AD"/>
<path d="M253.93 366.48C253.797 366.48 253.67 366.427 253.576 366.334C253.483 366.24 253.43 366.113 253.43 365.98V362.8C253.43 362.667 253.483 362.54 253.576 362.447C253.67 362.353 253.797 362.3 253.93 362.3C254.063 362.3 254.19 362.353 254.284 362.447C254.377 362.54 254.43 362.667 254.43 362.8V366C254.425 366.129 254.37 366.251 254.277 366.341C254.183 366.43 254.059 366.48 253.93 366.48Z" fill="#00B8AD"/>
<path d="M257.55 366.48C257.418 366.478 257.292 366.424 257.199 366.331C257.106 366.238 257.053 366.112 257.05 365.98V362.8C257.053 362.668 257.106 362.543 257.199 362.449C257.292 362.356 257.418 362.303 257.55 362.3C257.683 362.3 257.81 362.353 257.904 362.447C257.997 362.54 258.05 362.667 258.05 362.8V366C258.045 366.129 257.99 366.251 257.897 366.341C257.803 366.43 257.679 366.48 257.55 366.48Z" fill="#00B8AD"/>
<path d="M261.17 366.48C261.038 366.478 260.913 366.424 260.819 366.331C260.726 366.238 260.673 366.112 260.67 365.98V362.8C260.673 362.668 260.726 362.543 260.819 362.449C260.913 362.356 261.038 362.303 261.17 362.3C261.303 362.3 261.43 362.353 261.524 362.447C261.617 362.54 261.67 362.667 261.67 362.8V366C261.665 366.129 261.61 366.251 261.517 366.341C261.423 366.43 261.299 366.48 261.17 366.48Z" fill="#00B8AD"/>
<path d="M264.8 366.48C264.667 366.48 264.54 366.427 264.446 366.334C264.353 366.24 264.3 366.113 264.3 365.98V362.8C264.3 362.667 264.353 362.54 264.446 362.447C264.54 362.353 264.667 362.3 264.8 362.3C264.932 362.303 265.058 362.356 265.151 362.449C265.244 362.543 265.297 362.668 265.3 362.8V366C265.292 366.128 265.237 366.249 265.144 366.338C265.051 366.427 264.928 366.478 264.8 366.48Z" fill="#00B8AD"/>
<path d="M268.42 366.48C268.287 366.48 268.16 366.427 268.066 366.334C267.973 366.24 267.92 366.113 267.92 365.98V362.8C267.92 362.667 267.973 362.54 268.066 362.447C268.16 362.353 268.287 362.3 268.42 362.3C268.552 362.303 268.678 362.356 268.771 362.449C268.864 362.543 268.917 362.668 268.92 362.8V366C268.913 366.128 268.857 366.249 268.764 366.338C268.671 366.427 268.549 366.478 268.42 366.48Z" fill="#00B8AD"/>
<path d="M272 366.48C271.867 366.48 271.74 366.427 271.646 366.334C271.553 366.24 271.5 366.113 271.5 365.98V362.8C271.5 362.667 271.553 362.54 271.646 362.447C271.74 362.353 271.867 362.3 272 362.3C272.133 362.3 272.26 362.353 272.354 362.447C272.447 362.54 272.5 362.667 272.5 362.8V366C272.495 366.129 272.44 366.251 272.347 366.341C272.253 366.43 272.129 366.48 272 366.48Z" fill="#00B8AD"/>
<path d="M275.66 366.48C275.528 366.478 275.403 366.424 275.309 366.331C275.216 366.238 275.163 366.112 275.16 365.98V362.8C275.163 362.668 275.216 362.543 275.309 362.449C275.403 362.356 275.528 362.303 275.66 362.3C275.793 362.3 275.92 362.353 276.014 362.447C276.107 362.54 276.16 362.667 276.16 362.8V366C276.155 366.129 276.1 366.251 276.007 366.341C275.913 366.43 275.789 366.48 275.66 366.48Z" fill="#00B8AD"/>
<path d="M436.85 367.67H408.57C408.438 367.667 408.312 367.614 408.219 367.521C408.126 367.428 408.073 367.302 408.07 367.17C408.07 367.037 408.123 366.91 408.216 366.816C408.31 366.723 408.437 366.67 408.57 366.67H436.85C436.983 366.67 437.11 366.723 437.204 366.816C437.297 366.91 437.35 367.037 437.35 367.17C437.347 367.302 437.294 367.428 437.201 367.521C437.107 367.614 436.982 367.667 436.85 367.67Z" fill="#00B8AD"/>
<path d="M410.65 370.87C410.517 370.87 410.39 370.817 410.296 370.724C410.203 370.63 410.15 370.503 410.15 370.37V367.2C410.15 367.067 410.203 366.94 410.296 366.846C410.39 366.753 410.517 366.7 410.65 366.7C410.783 366.7 410.91 366.753 411.004 366.846C411.097 366.94 411.15 367.067 411.15 367.2V370.37C411.15 370.503 411.097 370.63 411.004 370.724C410.91 370.817 410.783 370.87 410.65 370.87Z" fill="#00B8AD"/>
<path d="M414.27 370.87C414.137 370.87 414.01 370.817 413.916 370.724C413.823 370.63 413.77 370.503 413.77 370.37V367.2C413.77 367.067 413.823 366.94 413.916 366.846C414.01 366.753 414.137 366.7 414.27 366.7C414.403 366.7 414.53 366.753 414.624 366.846C414.717 366.94 414.77 367.067 414.77 367.2V370.37C414.77 370.503 414.717 370.63 414.624 370.724C414.53 370.817 414.403 370.87 414.27 370.87Z" fill="#00B8AD"/>
<path d="M417.89 370.87C417.757 370.87 417.63 370.817 417.536 370.724C417.443 370.63 417.39 370.503 417.39 370.37V367.2C417.39 367.067 417.443 366.94 417.536 366.846C417.63 366.753 417.757 366.7 417.89 366.7C418.023 366.7 418.15 366.753 418.244 366.846C418.337 366.94 418.39 367.067 418.39 367.2V370.37C418.39 370.503 418.337 370.63 418.244 370.724C418.15 370.817 418.023 370.87 417.89 370.87Z" fill="#00B8AD"/>
<path d="M421.51 370.87C421.377 370.87 421.25 370.817 421.156 370.724C421.063 370.63 421.01 370.503 421.01 370.37V367.2C421.01 367.067 421.063 366.94 421.156 366.846C421.25 366.753 421.377 366.7 421.51 366.7C421.643 366.7 421.77 366.753 421.864 366.846C421.957 366.94 422.01 367.067 422.01 367.2V370.37C422.01 370.503 421.957 370.63 421.864 370.724C421.77 370.817 421.643 370.87 421.51 370.87Z" fill="#00B8AD"/>
<path d="M425.14 370.87C425.007 370.87 424.88 370.817 424.786 370.724C424.693 370.63 424.64 370.503 424.64 370.37V367.2C424.64 367.067 424.693 366.94 424.786 366.846C424.88 366.753 425.007 366.7 425.14 366.7C425.273 366.7 425.4 366.753 425.494 366.846C425.587 366.94 425.64 367.067 425.64 367.2V370.37C425.64 370.503 425.587 370.63 425.494 370.724C425.4 370.817 425.273 370.87 425.14 370.87Z" fill="#00B8AD"/>
<path d="M428.76 370.87C428.627 370.87 428.5 370.817 428.406 370.724C428.313 370.63 428.26 370.503 428.26 370.37V367.2C428.26 367.067 428.313 366.94 428.406 366.846C428.5 366.753 428.627 366.7 428.76 366.7C428.893 366.7 429.02 366.753 429.114 366.846C429.207 366.94 429.26 367.067 429.26 367.2V370.37C429.26 370.503 429.207 370.63 429.114 370.724C429.02 370.817 428.893 370.87 428.76 370.87Z" fill="#00B8AD"/>
<path d="M432.38 370.87C432.247 370.87 432.12 370.817 432.026 370.724C431.933 370.63 431.88 370.503 431.88 370.37V367.2C431.88 367.067 431.933 366.94 432.026 366.846C432.12 366.753 432.247 366.7 432.38 366.7C432.513 366.7 432.64 366.753 432.734 366.846C432.827 366.94 432.88 367.067 432.88 367.2V370.37C432.88 370.503 432.827 370.63 432.734 370.724C432.64 370.817 432.513 370.87 432.38 370.87Z" fill="#00B8AD"/>
<path d="M436 370.87C435.867 370.87 435.74 370.817 435.646 370.724C435.553 370.63 435.5 370.503 435.5 370.37V367.2C435.5 367.067 435.553 366.94 435.646 366.846C435.74 366.753 435.867 366.7 436 366.7C436.133 366.7 436.26 366.753 436.354 366.846C436.447 366.94 436.5 367.067 436.5 367.2V370.37C436.5 370.503 436.447 370.63 436.354 370.724C436.26 370.817 436.133 370.87 436 370.87Z" fill="#00B8AD"/>
<path d="M363.18 361.33V322.76H364.13V361.33" fill="#00B8AD"/>
<path d="M423.27 387.14V348.57H424.23V387.14" fill="#00B8AD"/>
<path d="M368.38 373.79V335.22H369.33V373.79" fill="#00B8AD"/>
<path d="M370.86 350.52H364.99V361.33H370.86V350.52Z" fill="#00B8AD"/>
<path d="M337.36 325.66H333.67V328.82H337.36V325.66Z" fill="#00B8AD"/>
<path d="M337.81 354.87V316.3H338.76V354.87" fill="#00B8AD"/>
<path d="M332.06 362.77V324.2H333.01V362.77" fill="#00B8AD"/>
<path d="M376 360.14H360.77V367.86H376V360.14Z" fill="#00B8AD"/>
<path opacity="0.2" d="M376 360.14H360.77V367.86H376V360.14Z" fill="white"/>
<path d="M344.91 365.24H386.88L389.45 374.98H344.91V365.24Z" fill="#00B8AD"/>
<path opacity="0.3" d="M344.91 365.24H386.88L389.45 374.98H344.91V365.24Z" fill="white"/>
<path d="M340.59 353.81V328.1H330.83L328.69 353.81H340.59Z" fill="#00B8AD"/>
<path opacity="0.2" d="M340.59 353.81V328.1H330.83L328.69 353.81H340.59Z" fill="white"/>
<path d="M316.79 350.52L311.78 359.22H338.29V351.31L316.79 350.52Z" fill="#263238"/>
<path d="M316.07 349.76L314.75 351.7H334.64V353.02H313.86L312.61 354.87H334.64V356.19H311.71L306.54 363.81L344.91 365.24L342.91 349.76H316.07Z" fill="#00B8AD"/>
<path opacity="0.3" d="M316.07 349.76L314.75 351.7H334.64V353.02H313.86L312.61 354.87H334.64V356.19H311.71L306.54 363.81L344.91 365.24L342.91 349.76H316.07Z" fill="white"/>
<path d="M302.29 361.33L292.26 369.77H335.78V361.86L302.29 361.33Z" fill="#263238"/>
<path d="M301.54 360.29L298.41 362.77H328.18V364.09H296.74L294.41 365.94H328.18V367.25H292.74L279.64 377.62L349.83 380.42L345.83 360.29H301.54Z" fill="#00B8AD"/>
<path opacity="0.4" d="M301.54 360.29L298.41 362.77H328.18V364.09H296.74L294.41 365.94H328.18V367.25H292.74L279.64 377.62L349.83 380.42L345.83 360.29H301.54Z" fill="white"/>
<path d="M406.9 369.47L400.9 372.47H288.35L278.3 365.47H227.23C227.23 365.47 247.23 382.42 256.08 395.37H424.13L437.85 369.47H406.9Z" fill="#00B8AD"/>
<path opacity="0.6" d="M406.9 369.47L400.9 372.47H288.35L278.3 365.47H227.23C227.23 365.47 247.23 382.42 256.08 395.37H424.13L437.85 369.47H406.9Z" fill="white"/>
<path d="M196.66 400.25C196.66 400.25 221.66 396.25 237.8 396.25C249.73 396.25 273.08 386.96 273.8 395.11C273.8 395.11 308.27 389.3 312.18 391.11C316.09 392.92 312.18 395.33 312.18 395.33C312.18 395.33 360.15 391 363.66 391C367.17 391 363.18 394.23 363.18 394.23C363.18 394.23 393.56 390.08 396.78 391.13C400 392.18 395.56 394.84 397.78 395.13C400 395.42 428.18 389.71 430.9 391.13C433.62 392.55 432.38 398.35 432.38 398.35L442.73 400.24L196.66 400.25Z" fill="#00B8AD"/>
<path opacity="0.8" d="M196.66 400.25C196.66 400.25 221.66 396.25 237.8 396.25C249.73 396.25 273.08 386.96 273.8 395.11C273.8 395.11 308.27 389.3 312.18 391.11C316.09 392.92 312.18 395.33 312.18 395.33C312.18 395.33 360.15 391 363.66 391C367.17 391 363.18 394.23 363.18 394.23C363.18 394.23 393.56 390.08 396.78 391.13C400 392.18 395.56 394.84 397.78 395.13C400 395.42 428.18 389.71 430.9 391.13C433.62 392.55 432.38 398.35 432.38 398.35L442.73 400.24L196.66 400.25Z" fill="white"/>
<path d="M33.46 393.12H239.46C239.46 393.12 220.18 393.92 215.95 389.3C211.72 384.68 195.48 386.22 195.48 386.22C195.48 386.22 176.38 378.83 161.81 385.97C147.24 393.11 134.57 382.86 123.49 382.86C112.41 382.86 101.71 388 101.71 388C94.3934 386.755 86.9815 386.156 79.56 386.21C66.56 386.21 30.56 393.16 30.56 393.16" fill="#00B8AD"/>
<path opacity="0.8" d="M33.46 393.12H239.46C239.46 393.12 220.18 393.92 215.95 389.3C211.72 384.68 195.48 386.22 195.48 386.22C195.48 386.22 176.38 378.83 161.81 385.97C147.24 393.11 134.57 382.86 123.49 382.86C112.41 382.86 101.71 388 101.71 388C94.3934 386.755 86.9815 386.156 79.56 386.21C66.56 386.21 30.56 393.16 30.56 393.16" fill="white"/>
<path d="M368.42 224.41C365.57 222.63 353.83 235.28 348.27 236.87C352.221 238.214 356.496 238.27 360.48 237.03C366.61 234.88 371.44 226.28 368.42 224.41Z" fill="#00B8AD"/>
<path opacity="0.2" d="M348.27 236.87C352.221 238.214 356.496 238.27 360.48 237.03C366.61 234.88 371.48 226.28 368.42 224.41C367.75 223.99 366.58 224.41 365.11 225.23C360.36 228 352.51 235.65 348.27 236.87Z" fill="white"/>
<path opacity="0.2" d="M348.27 236.87C348.27 236.87 353.27 237.41 353.97 236.65C354.325 236.266 354.762 235.968 355.249 235.778C355.735 235.587 356.259 235.509 356.78 235.55C358.17 235.55 358.78 234.85 358.48 233.44C358.18 232.03 360.22 232.79 361.41 232.32C362.6 231.85 361.27 231.42 361.24 230.44C361.21 229.46 363.62 229.33 363.76 228.54C363.9 227.75 362.96 227.93 363.47 227.12C363.98 226.31 365.72 226 365.11 225.23C360.36 228 352.51 235.65 348.27 236.87Z" fill="black"/>
<path d="M377.68 222C374.8 221.37 367.63 223.37 365.43 223.12C363.43 222.9 349.85 221.98 349.85 221.98C349.85 221.98 342.73 222.58 340.85 221.71C333.38 218.22 322.17 216.26 322.17 216.26L333.91 222.7L322.74 222C322.74 222 327.56 224.21 338.05 225.51C341.705 227.687 345.531 229.563 349.49 231.12C358.23 234.77 364.54 231.98 366.62 230.86C371.17 228.42 384.88 227.26 384.88 227.26L380.74 224.84C380.541 224.131 380.15 223.49 379.61 222.989C379.07 222.488 378.402 222.146 377.68 222Z" fill="#00B8AD"/>
<path opacity="0.3" d="M333.91 222.67L322.74 222C322.74 222 327.56 224.22 338.06 225.51C338.06 225.51 338.23 225.63 338.61 225.85C341.4 227.445 344.278 228.881 347.23 230.15C347.93 230.47 348.69 230.78 349.49 231.15C352.258 232.349 355.243 232.969 358.26 232.97C361.173 232.958 364.041 232.245 366.62 230.89C369.342 229.73 372.208 228.94 375.14 228.54L376.72 228.28L377.88 228.11L380.37 227.78C382.97 227.46 384.86 227.3 384.86 227.3L380.73 224.87C380.537 224.152 380.147 223.502 379.604 222.994C379.062 222.485 378.389 222.137 377.66 221.99C375.77 221.58 372.03 222.29 369.07 222.76C367.866 223.01 366.639 223.128 365.41 223.11C363.21 222.87 349.66 221.93 349.83 221.98H349.72C348.82 222.04 342.56 222.5 340.83 221.69C339.51 221.08 338.06 220.5 336.59 219.99C331.882 218.404 327.066 217.158 322.18 216.26L333.91 222.67Z" fill="white"/>
<path opacity="0.2" d="M369.08 222.74C370.47 223.02 372.27 223.52 372.78 224.34C373.48 225.43 373.9 227.51 375.15 228.53C375.68 228.43 376.21 228.35 376.73 228.27L377.91 228.09C378.78 227.96 379.62 227.86 380.39 227.76C380.661 226.815 380.779 225.832 380.74 224.85C380.547 224.133 380.159 223.484 379.619 222.976C379.078 222.467 378.407 222.119 377.68 221.97C375.79 221.56 372.05 222.27 369.08 222.74Z" fill="black"/>
<path opacity="0.2" d="M333.91 222.67L322.74 222C322.74 222 327.56 224.22 338.05 225.51C340.991 227.275 344.056 228.826 347.22 230.15C348.61 229.72 345.22 227.93 343.86 226.84C342.06 225.42 342.3 225.7 343.14 225.32C343.98 224.94 343.19 224.64 341 223.69C338.81 222.74 339.42 222.32 338.22 220.98C337.737 220.563 337.19 220.225 336.6 219.98C331.892 218.394 327.076 217.148 322.19 216.25L333.91 222.67Z" fill="black"/>
<path d="M380.75 224.85L379.31 225.52L379.65 227.85L384.88 227.27L380.75 224.85Z" fill="#263238"/>
<path opacity="0.3" d="M338.61 225.86C341.4 227.455 344.278 228.891 347.23 230.16C347.93 230.48 348.69 230.79 349.49 231.16C352.258 232.359 355.243 232.979 358.26 232.98C359.889 231.309 361.239 229.388 362.26 227.29C362.26 227.29 361.47 224.89 357.26 223.39C354.51 222.39 344.89 224.37 338.61 225.86Z" fill="black"/>
<path d="M362.17 223.19C356.94 220.46 327.07 232.39 314.78 232.94C323.014 235.509 331.654 236.527 340.26 235.94C354 234.91 367.69 226.07 362.17 223.19Z" fill="#00B8AD"/>
<path opacity="0.4" d="M314.77 232.94C323.008 235.509 331.651 236.526 340.26 235.94C353.97 234.88 367.7 226.03 362.17 223.15C360.94 222.5 358.32 222.68 354.89 223.32C343.81 225.46 324.16 232.52 314.77 232.94Z" fill="white"/>
<path opacity="0.2" d="M314.77 232.94C314.77 232.94 325.03 234.74 326.77 234.02C328.794 233.266 330.979 233.052 333.11 233.4C336.04 233.67 337.47 233.04 337.55 231.35C337.63 229.66 341.47 231 344.14 230.73C346.81 230.46 344.24 229.66 344.59 228.51C344.94 227.36 350.02 227.78 350.64 226.89C351.26 226 349.22 226 350.64 225.18C352.06 224.36 355.82 224.4 354.86 223.36C343.81 225.46 324.16 232.52 314.77 232.94Z" fill="black"/>
<path d="M303.91 120.91C303.91 120.91 303.37 114.8 301.91 113.85C300.45 112.9 291.68 110.57 291.68 110.57C291.68 110.57 295.16 120 297.27 121.08C299.38 122.16 303.91 120.91 303.91 120.91Z" fill="#00B8AD"/>
<path opacity="0.3" d="M291.71 110.58C291.82 110.87 295.22 120.02 297.3 121.08C298.694 121.569 300.194 121.669 301.64 121.37C302.405 121.263 303.163 121.109 303.91 120.91C303.91 120.91 303.37 114.8 301.91 113.85C300.45 112.9 292.49 110.79 291.74 110.59H291.69L291.71 110.58Z" fill="white"/>
<path opacity="0.2" d="M291.71 110.58C291.82 110.87 295.22 120.02 297.3 121.08C298.693 121.569 300.194 121.669 301.64 121.37C303.64 120.03 299.4 118.55 298.76 118.07C298.12 117.59 298.53 117.12 298.76 116.78C298.99 116.44 298.22 115.62 297.33 115.28C296.44 114.94 296.17 114.28 296.38 113.28C296.59 112.28 292.33 110.83 291.79 110.64H291.74L291.71 110.58Z" fill="black"/>
<path d="M308.39 117.24C306.39 117.18 301.87 119.42 300.39 119.53C298.91 119.64 291.46 114.53 289.85 113.67C288.24 112.81 274.25 110.94 274.25 110.94C274.25 110.94 283.55 120.46 289.85 120.73C289.85 120.73 285.18 122.03 283.85 121.73C278.43 120.35 270.71 120.45 270.71 120.45L279.35 123.26L271.82 124.26C271.82 124.26 275.31 125.13 282.47 124.67C285.184 125.657 287.973 126.427 290.81 126.97C297.09 128.3 300.95 125.65 302.19 124.64C304.92 122.44 313.91 119.94 313.91 119.94L310.85 118.84C310.637 118.365 310.292 117.962 309.855 117.678C309.419 117.394 308.91 117.242 308.39 117.24Z" fill="#00B8AD"/>
<path opacity="0.4" d="M279.3 123.22L271.77 124.22C271.77 124.22 275.26 125.09 282.42 124.63C284.604 125.437 286.843 126.085 289.12 126.57L290.76 126.93C297.04 128.26 300.9 125.61 302.15 124.6C303.814 123.477 305.624 122.589 307.53 121.96L308.53 121.59L309.29 121.32L310.9 120.79C312.59 120.24 313.83 119.9 313.83 119.9L310.77 118.8C310.551 118.347 310.211 117.965 309.787 117.695C309.363 117.424 308.873 117.277 308.37 117.27C307.05 117.27 304.65 118.18 302.73 118.87C301.96 119.183 301.159 119.414 300.34 119.56C298.84 119.67 291.4 114.56 289.81 113.7C289.03 113.29 285.37 112.64 281.81 112.08C277.98 111.47 274.23 110.97 274.23 110.97C274.23 110.97 280.67 117.56 286.47 119.97C287.425 120.386 288.436 120.659 289.47 120.78H289.83H289.75C289.16 120.95 285.06 122.04 283.75 121.72C282.762 121.465 281.76 121.265 280.75 121.12C277.41 120.658 274.042 120.434 270.67 120.45L279.3 123.22Z" fill="white"/>
<path opacity="0.2" d="M302.76 118.84C303.691 118.753 304.626 118.963 305.43 119.44C306.03 120.07 306.57 121.44 307.53 121.93L308.53 121.56L309.29 121.29L310.9 120.76C310.962 120.091 310.919 119.416 310.77 118.76C310.551 118.307 310.211 117.925 309.787 117.655C309.363 117.384 308.873 117.237 308.37 117.23C307.08 117.2 304.68 118.15 302.76 118.84Z" fill="black"/>
<path opacity="0.2" d="M274.23 110.94C274.23 110.94 280.67 117.53 286.47 119.94C287.448 120.286 288.451 120.556 289.47 120.75H289.75C294.45 121.48 294.99 120.75 294.99 120.75C294.99 120.75 293.4 120.29 293.25 120.29C293.1 120.29 293.92 119.77 292.89 119.38C291.86 118.99 292.02 118.5 292.02 118.5C291.006 118.182 290.03 117.753 289.11 117.22C289 116.91 289.47 116.4 288.19 116.14C286.91 115.88 288.14 115.22 286.19 114.51C284.24 113.8 284.7 113.38 284.7 113.38C283.637 113.214 282.644 112.745 281.84 112.03C278 111.44 274.23 110.94 274.23 110.94Z" fill="black"/>
<path opacity="0.2" d="M279.3 123.22L271.77 124.22C271.77 124.22 275.26 125.09 282.42 124.63C284.604 125.437 286.843 126.085 289.12 126.57C289.99 126.11 287.53 125.34 286.46 124.79C285.08 124.07 285.28 124.22 285.79 123.87C286.3 123.52 285.74 123.41 284.16 123.04C282.58 122.67 282.94 122.33 281.96 121.59C281.588 121.37 281.183 121.211 280.76 121.12C277.42 120.658 274.052 120.434 270.68 120.45L279.3 123.22Z" fill="black"/>
<path d="M310.8 118.77L309.93 119.4L310.45 120.91L313.87 119.87L310.8 118.77Z" fill="#263238"/>
<path d="M254.43 297.52H269.29C269.65 297.52 270.006 297.591 270.339 297.729C270.671 297.866 270.973 298.068 271.227 298.323C271.482 298.577 271.684 298.879 271.821 299.211C271.959 299.544 272.03 299.9 272.03 300.26V418.76H251.69V300.26C251.69 299.533 251.979 298.836 252.493 298.323C253.006 297.809 253.703 297.52 254.43 297.52Z" fill="#263238"/>
<path d="M254.7 314.93H60.57V306.36H254.7C255.836 306.36 256.926 306.811 257.73 307.613C258.534 308.415 258.987 309.504 258.99 310.64C258.99 311.203 258.879 311.761 258.663 312.282C258.448 312.802 258.132 313.275 257.733 313.673C257.335 314.072 256.862 314.388 256.342 314.603C255.821 314.819 255.263 314.93 254.7 314.93Z" fill="#263238"/>
<path opacity="0.2" d="M254.7 314.93H60.57V306.36H254.7C255.836 306.36 256.926 306.811 257.73 307.613C258.534 308.415 258.987 309.504 258.99 310.64C258.99 311.203 258.879 311.761 258.663 312.282C258.448 312.802 258.132 313.275 257.733 313.673C257.335 314.072 256.862 314.388 256.342 314.603C255.821 314.819 255.263 314.93 254.7 314.93Z" fill="white"/>
<path d="M254.7 359.07H60.57V350.5H254.7C255.836 350.5 256.926 350.951 257.73 351.753C258.534 352.555 258.987 353.644 258.99 354.78C258.99 355.343 258.879 355.901 258.663 356.422C258.448 356.942 258.132 357.415 257.733 357.813C257.335 358.212 256.862 358.528 256.342 358.743C255.821 358.959 255.263 359.07 254.7 359.07Z" fill="#263238"/>
<path opacity="0.2" d="M254.7 359.07H60.57V350.5H254.7C255.836 350.5 256.926 350.951 257.73 351.753C258.534 352.555 258.987 353.644 258.99 354.78C258.99 355.343 258.879 355.901 258.663 356.422C258.448 356.942 258.132 357.415 257.733 357.813C257.335 358.212 256.862 358.528 256.342 358.743C255.821 358.959 255.263 359.07 254.7 359.07Z" fill="white"/>
<path d="M254.7 403.21H60.57V394.64H254.7C255.263 394.64 255.821 394.751 256.342 394.967C256.862 395.182 257.335 395.498 257.733 395.897C258.132 396.295 258.448 396.768 258.663 397.288C258.879 397.809 258.99 398.367 258.99 398.93C258.987 400.066 258.534 401.155 257.73 401.957C256.926 402.759 255.836 403.21 254.7 403.21Z" fill="#263238"/>
<path opacity="0.2" d="M254.7 403.21H60.57V394.64H254.7C255.263 394.64 255.821 394.751 256.342 394.967C256.862 395.182 257.335 395.498 257.733 395.897C258.132 396.295 258.448 396.768 258.663 397.288C258.879 397.809 258.99 398.367 258.99 398.93C258.987 400.066 258.534 401.155 257.73 401.957C256.926 402.759 255.836 403.21 254.7 403.21Z" fill="white"/>
<path d="M115.56 409.36C106.62 409.36 94.56 402.36 88.08 389.41C75.29 363.88 79.55 357.1 80.69 355.88L80.32 352.8C79.01 355.39 78.47 355.28 78.18 355.22C77.56 355.09 77.56 354.22 77.56 353.92C77.56 353.62 78 333.49 93 318.31C103.29 307.95 114.28 303.06 126.62 303.38C127.39 303.38 128.11 304.62 128.54 305.52C129.44 305.46 131.11 305.16 131.27 304.23C131.37 303.67 132.06 303.53 132.27 303.49C135.99 302.74 158.63 306.16 170.5 324.9C181.5 342.19 182.1 349.01 180.71 351.68C180.534 352.051 180.281 352.379 179.967 352.643C179.653 352.907 179.285 353.1 178.89 353.21L178.18 355.57H179.18C179.302 355.571 179.42 355.616 179.512 355.697C179.604 355.778 179.663 355.889 179.68 356.01C182.29 377.81 162.62 394.2 154.04 400.24C145.66 406.14 137.56 409.62 135.92 408.81C132.92 407.32 131.64 402.13 131.32 400.6H126.98C126.591 402.856 125.471 404.921 123.792 406.477C122.113 408.033 119.969 408.993 117.69 409.21C116.984 409.308 116.273 409.358 115.56 409.36ZM81.56 356.47C81.47 356.55 75.42 361.84 89.02 388.96C95.85 402.6 108.94 409.47 117.66 408.22C119.798 408.013 121.804 407.09 123.35 405.599C124.897 404.109 125.894 402.139 126.18 400.01C126.203 399.894 126.266 399.79 126.357 399.716C126.448 399.641 126.562 399.6 126.68 399.6H131.84C131.958 399.601 132.072 399.643 132.162 399.72C132.252 399.797 132.311 399.903 132.33 400.02C132.33 400.08 133.5 406.43 136.48 407.92C137.33 408.34 144.38 405.92 153.58 399.42C161.95 393.53 181.08 377.62 178.84 356.57H177.59C177.511 356.571 177.433 356.553 177.361 356.518C177.29 356.484 177.228 356.433 177.18 356.37C177.134 356.307 177.104 356.235 177.092 356.158C177.08 356.082 177.086 356.004 177.11 355.93L178.11 352.64C178.137 352.54 178.196 352.451 178.276 352.387C178.357 352.322 178.457 352.285 178.56 352.28C178.862 352.23 179.147 352.103 179.386 351.913C179.626 351.722 179.813 351.473 179.93 351.19C180.93 349.19 180.93 343.14 169.75 325.44C160.12 310.25 143.57 305.93 138.75 304.97C135.04 304.23 132.82 304.31 132.33 304.53C131.84 306.53 128.47 306.53 128.33 306.53C128.232 306.532 128.136 306.504 128.054 306.45C127.972 306.397 127.908 306.32 127.87 306.23C127.613 305.532 127.203 304.9 126.67 304.38C114.67 304.09 103.9 308.86 93.82 319.02C79.52 333.43 78.68 352.46 78.64 353.85C79.2433 352.892 79.7715 351.889 80.22 350.85C80.254 350.732 80.3295 350.63 80.4325 350.563C80.5355 350.497 80.6591 350.469 80.7807 350.486C80.9023 350.503 81.0137 350.564 81.0944 350.656C81.175 350.749 81.2197 350.867 81.22 350.99L81.84 356.05C81.8312 356.143 81.7965 356.231 81.74 356.306C81.6834 356.38 81.6072 356.437 81.52 356.47H81.56Z" fill="#263238"/>
<path d="M179.1 349.65C178.097 338.001 173.014 327.081 164.747 318.813C156.479 310.546 145.559 305.463 133.91 304.46C132.5 304.33 131.08 304.27 129.64 304.27C128.2 304.27 126.78 304.33 125.37 304.46C113.721 305.463 102.801 310.546 94.5334 318.813C86.266 327.081 81.1829 338.001 80.18 349.65C80.04 351.06 79.99 352.48 79.99 353.92C79.99 355.36 80.04 356.79 80.18 358.2C81.1829 369.849 86.266 380.769 94.5334 389.037C102.801 397.304 113.721 402.387 125.37 403.39C126.78 403.52 128.2 403.58 129.64 403.58C131.08 403.58 132.5 403.52 133.91 403.39C145.559 402.387 156.479 397.304 164.747 389.037C173.014 380.769 178.097 369.849 179.1 358.2C179.24 356.79 179.29 355.37 179.29 353.92C179.29 352.47 179.24 351.06 179.1 349.65ZM133.91 388.93C126.625 389.819 119.245 388.413 112.797 384.907C106.35 381.402 101.157 375.972 97.9422 369.374C94.7276 362.777 93.6516 355.341 94.8642 348.103C96.0769 340.865 99.5177 334.186 104.707 328.997C109.896 323.808 116.575 320.367 123.813 319.154C131.051 317.942 138.487 319.018 145.084 322.232C151.682 325.447 157.112 330.64 160.617 337.087C164.122 343.535 165.529 350.915 164.64 358.2C163.651 366.005 160.095 373.259 154.532 378.822C148.969 384.385 141.715 387.941 133.91 388.93Z" fill="#00B8AD"/>
<path opacity="0.4" d="M133.91 304.46V318.92C131.074 318.573 128.206 318.573 125.37 318.92V304.46C126.78 304.33 128.2 304.27 129.64 304.27C131.08 304.27 132.5 304.33 133.91 304.46Z" fill="white"/>
<path opacity="0.4" d="M133.91 388.93V403.39C132.5 403.52 131.08 403.58 129.64 403.58C128.2 403.58 126.78 403.52 125.37 403.39V388.93C128.206 389.277 131.074 389.277 133.91 388.93Z" fill="white"/>
<path opacity="0.4" d="M94.38 353.92C94.3804 355.351 94.4672 356.78 94.64 358.2H80.18C80.04 356.79 79.99 355.37 79.99 353.92C79.99 352.47 80.04 351.06 80.18 349.65H94.64C94.4675 351.067 94.3807 352.493 94.38 353.92Z" fill="white"/>
<path opacity="0.4" d="M179.29 353.92C179.29 355.37 179.29 356.79 179.1 358.2H164.64C164.987 355.361 164.987 352.489 164.64 349.65H179.1C179.24 351.06 179.29 352.48 179.29 353.92Z" fill="white"/>
<path d="M213.59 200.56L225.59 196.38C225.299 195.657 225.133 194.889 225.1 194.11C225.1 193 227.87 185.65 227.87 185.65C227.87 185.65 234.87 188.28 235.11 188.75C235.35 189.22 234.19 198.59 230.44 199.06L220.15 204.49L213.59 200.56Z" fill="#EBB376"/>
<path d="M200.32 172.42C204.03 173.55 211.02 196.89 211.32 197.81C211.62 198.73 220.81 197.58 220.81 197.58L224.03 206.91C224.03 206.91 209.86 212.71 205.12 210.08C200.38 207.45 197.74 181.33 197.74 181.33L200.32 172.42Z" fill="#00B8AD"/>
<path opacity="0.6" d="M200.32 172.42C204.03 173.55 211.02 196.89 211.32 197.81C211.62 198.73 220.81 197.58 220.81 197.58L224.03 206.91C224.03 206.91 209.86 212.71 205.12 210.08C200.38 207.45 197.74 181.33 197.74 181.33L200.32 172.42Z" fill="white"/>
<path d="M167.85 409.79H158.28C158.125 409.794 157.975 409.849 157.854 409.947C157.733 410.044 157.647 410.179 157.61 410.33L156.06 417.33C156.028 417.5 156.033 417.674 156.076 417.842C156.119 418.009 156.198 418.165 156.307 418.299C156.417 418.432 156.555 418.54 156.711 418.615C156.867 418.689 157.037 418.729 157.21 418.73C160.3 418.68 162.56 418.49 166.44 418.49C168.84 418.49 176.06 418.74 179.37 418.74C182.68 418.74 183.1 415.47 181.75 415.17C175.68 413.85 171.11 412.02 169.17 410.27C168.808 409.946 168.335 409.774 167.85 409.79Z" fill="#263238"/>
<path d="M208.42 409.54H198.85C198.695 409.544 198.545 409.599 198.424 409.697C198.303 409.794 198.217 409.929 198.18 410.08L196.63 417.08C196.598 417.25 196.603 417.424 196.646 417.592C196.689 417.759 196.768 417.915 196.877 418.049C196.987 418.182 197.125 418.29 197.281 418.365C197.437 418.439 197.607 418.479 197.78 418.48C200.87 418.43 203.13 418.24 207.01 418.24C209.41 418.24 216.63 418.49 219.94 418.49C223.25 418.49 223.67 415.22 222.32 414.92C216.25 413.6 211.68 411.77 209.74 410.02C209.378 409.696 208.905 409.524 208.42 409.54Z" fill="#263238"/>
<path d="M162.77 232.46H204.57C208.57 254.16 220.98 342.28 212.06 410.7H197.91C197.91 410.7 199.22 306.79 186.73 273.21C185.29 291.21 170.73 410.63 170.73 410.63H156.33C156.33 410.63 158.48 365.7 160.63 323.25C161.94 296.52 162.72 238 162.77 232.46Z" fill="#00B8AD"/>
<path opacity="0.4" d="M162.77 232.46H204.57C208.57 254.16 220.98 342.28 212.06 410.7H197.91C197.91 410.7 199.22 306.79 186.73 273.21C185.29 291.21 170.73 410.63 170.73 410.63H156.33C156.33 410.63 158.48 365.7 160.63 323.25C161.94 296.52 162.72 238 162.77 232.46Z" fill="white"/>
<path opacity="0.2" d="M186.73 273.21C188.786 279.096 190.349 285.144 191.4 291.29C192.57 275.29 187.89 258.29 187.89 258.29L186.73 273.21Z" fill="black"/>
<path d="M199.16 237.53L205.46 237.45L204.92 232.96H199.16V237.53Z" fill="black"/>
<path d="M177.87 237.79L197.66 237.55V232.96H177.87V237.79Z" fill="black"/>
<path d="M176.37 232.96H162.85V237.97L176.37 237.81V232.96Z" fill="black"/>
<path d="M185.75 237.69H193.53V232.08H185.75V237.69Z" fill="white"/>
<path d="M162.72 233.77C161.6 209.83 154.56 175.95 154.56 175.95C174.1 171.24 200.32 172.42 200.32 172.42C205.43 190.7 205.32 220.2 204.9 233.77H162.72Z" fill="#00B8AD"/>
<path opacity="0.6" d="M204.9 233.77H162.72C162.36 226.05 161.39 217.3 160.23 208.99C160.03 207.53 159.82 206.09 159.61 204.67C159.13 201.46 158.61 198.36 158.16 195.47C157.16 189.59 156.24 184.53 155.57 181.03C154.95 177.84 154.57 175.95 154.57 175.95C174.11 171.24 200.33 172.42 200.33 172.42C201.896 178.391 202.986 184.477 203.59 190.62C204.15 195.62 204.51 200.73 204.74 205.74C205.25 216.77 205.11 227.16 204.9 233.77Z" fill="white"/>
<path opacity="0.2" d="M204.73 205.74C197.4 208.64 179.41 215.47 175.37 214.43C172.14 213.59 164.66 208.38 159.61 204.67C159.13 201.46 158.61 198.36 158.16 195.47C157.16 189.59 156.24 184.53 155.57 181.03C156.606 180.669 157.71 180.546 158.8 180.67C158.8 180.67 180.25 197.42 184.23 197.29C187.81 197.16 200.97 191.71 203.58 190.62C204.14 195.6 204.5 200.73 204.73 205.74Z" fill="black"/>
<path d="M170.06 173.31C173.67 176.59 183.98 180.67 183.98 180.67C183.98 180.67 188.06 173.86 186.9 172.14C183.64 171.6 182.06 170.08 181.41 168.14C181.055 166.934 180.943 165.67 181.08 164.42C181.134 163.722 181.227 163.027 181.36 162.34L170.36 154.23C171.84 159.58 173.6 169.43 170.06 173.31Z" fill="#EBB376"/>
<path opacity="0.2" d="M172.94 159.39C173.37 165.95 178.77 167.77 181.41 168.14C181.055 166.934 180.943 165.67 181.08 164.42L172.94 159.39Z" fill="black"/>
<path d="M188.26 136.52C188.26 136.52 192.11 146.47 187.52 151.65C182.93 156.83 178.69 137.65 178.69 137.65L188.26 136.52Z" fill="#263238"/>
<path d="M173.47 163.35C174.991 164.79 176.943 165.691 179.026 165.915C181.109 166.139 183.207 165.674 185 164.59C187.347 163.23 189.089 161.028 189.87 158.43C189.98 158.08 190.07 157.71 190.15 157.34C191.44 150.45 189.86 139.25 182.29 136.6C181.006 136.136 179.643 135.93 178.279 135.995C176.915 136.059 175.578 136.392 174.343 136.975C173.108 137.557 172 138.378 171.084 139.389C170.167 140.401 169.459 141.584 169 142.87C168.446 144.402 168.264 146.044 168.47 147.66C169.32 155.2 169.44 159.67 173.47 163.35Z" fill="#EBB376"/>
<path d="M180.1 149.22C180.1 149.83 180.48 150.32 180.89 150.3C181.3 150.28 181.59 149.75 181.57 149.14C181.55 148.53 181.18 148.04 180.78 148.06C180.38 148.08 180.08 148.59 180.1 149.22Z" fill="#263238"/>
<path d="M187.07 148.88C187.07 149.49 187.46 149.97 187.86 149.95C188.26 149.93 188.56 149.41 188.53 148.8C188.5 148.19 188.15 147.7 187.75 147.72C187.35 147.74 187.05 148.29 187.07 148.88Z" fill="#263238"/>
<path d="M184.87 149.29C185.701 151.138 186.781 152.864 188.08 154.42C187.67 154.742 187.194 154.972 186.687 155.092C186.179 155.213 185.652 155.223 185.14 155.12L184.87 149.29Z" fill="#DE5753"/>
<path d="M189.51 145.77C189.453 145.804 189.387 145.822 189.32 145.822C189.253 145.822 189.187 145.804 189.13 145.77C188.738 145.541 188.298 145.407 187.845 145.378C187.392 145.348 186.939 145.424 186.52 145.6C186.435 145.645 186.336 145.655 186.244 145.626C186.152 145.598 186.075 145.535 186.03 145.45C185.985 145.365 185.975 145.266 186.004 145.174C186.032 145.082 186.095 145.005 186.18 144.96C186.704 144.724 187.278 144.618 187.852 144.649C188.426 144.68 188.984 144.849 189.48 145.14C189.523 145.161 189.562 145.191 189.593 145.227C189.624 145.264 189.648 145.306 189.662 145.352C189.676 145.398 189.68 145.447 189.675 145.494C189.669 145.542 189.654 145.588 189.63 145.63C189.602 145.686 189.561 145.734 189.51 145.77Z" fill="#263238"/>
<path d="M178.59 146.5C178.516 146.501 178.442 146.481 178.38 146.44C178.346 146.406 178.32 146.367 178.302 146.323C178.283 146.279 178.274 146.232 178.274 146.185C178.274 146.138 178.283 146.091 178.302 146.047C178.32 146.003 178.346 145.963 178.38 145.93C178.789 145.523 179.289 145.22 179.838 145.046C180.388 144.872 180.972 144.832 181.54 144.93C181.632 144.956 181.71 145.016 181.758 145.098C181.807 145.18 181.822 145.277 181.8 145.37C181.776 145.461 181.719 145.54 181.639 145.59C181.559 145.64 181.463 145.658 181.37 145.64C180.919 145.57 180.458 145.607 180.024 145.748C179.59 145.888 179.194 146.129 178.87 146.45C178.829 146.477 178.784 146.496 178.735 146.505C178.687 146.513 178.638 146.512 178.59 146.5Z" fill="#263238"/>
<path d="M173.6 138L174.33 141.28C173.793 141.604 173.398 142.118 173.223 142.721C173.049 143.323 173.109 143.969 173.39 144.53C174.73 147.22 173.56 151.71 171.59 153.65C171.59 153.65 171.4 152.44 170.41 152.83C169.42 153.22 170.31 159.5 172.59 162.32C172.59 162.32 169.31 159.89 166.97 153.43C164.8 147.43 164.1 142.37 165.13 139.87L173.6 138Z" fill="#263238"/>
<path d="M165.5 154C166.425 155.672 167.975 156.909 169.81 157.44C172.25 158.13 173.47 155.95 172.81 153.65C172.2 151.65 170.21 148.72 167.76 149.07C165.31 149.42 164.4 152 165.5 154Z" fill="#EBB376"/>
<path d="M184.76 157.09C184.419 157.989 184.141 158.912 183.93 159.85H183.42C181.13 159.69 180.12 158.85 179.69 157.98C179.491 157.548 179.401 157.074 179.43 156.6C179.435 156.332 179.475 156.067 179.55 155.81C180.931 156.521 182.448 156.927 184 157C184.46 157.08 184.76 157.09 184.76 157.09Z" fill="#263238"/>
<path d="M184 157L183.74 157.81C181.58 157.65 180.08 157.25 179.45 156.55C179.455 156.282 179.495 156.017 179.57 155.76C180.941 156.486 182.452 156.909 184 157Z" fill="white"/>
<path d="M183.42 159.82C181.13 159.66 180.12 158.82 179.69 157.95C180.564 158.025 181.417 158.255 182.21 158.63C182.73 158.887 183.154 159.304 183.42 159.82Z" fill="#DE5753"/>
<path d="M174.93 166.33C178.64 168.66 185.66 169.13 188.86 164.41C192.06 159.69 190.6 152.41 190.6 152.41C190.281 154.063 189.598 155.624 188.6 156.98C186.6 154.75 183.33 156.22 183.33 156.22C182.591 155.345 181.562 154.766 180.43 154.59C178.83 154.52 174.43 155 174.43 155C172.94 154.17 172.68 150.1 172.68 150.1L171.84 150.87C171.84 150.87 171.22 164 174.93 166.33ZM178.76 156C179.504 155.829 180.276 155.81 181.028 155.942C181.78 156.074 182.498 156.356 183.14 156.77C183.14 156.77 187.41 156.13 187.79 159.63C188.17 163.13 184.79 164.2 183.39 163.29C181.99 162.38 183.22 160.81 183.22 160.81L181.71 160.37C181.589 160.831 181.35 161.253 181.017 161.593C180.683 161.933 180.267 162.181 179.808 162.311C179.35 162.442 178.865 162.45 178.403 162.336C177.94 162.222 177.515 161.989 177.17 161.66C176.764 161.229 176.477 160.701 176.336 160.126C176.194 159.551 176.204 158.95 176.364 158.38C176.524 157.811 176.829 157.292 177.249 156.875C177.669 156.458 178.189 156.156 178.76 156Z" fill="#263238"/>
<path d="M202.91 192.76C197.57 188.96 185.99 186.67 185.99 186.67C187.86 191.67 195.2 197.81 195.2 197.81C194.376 198.659 193.798 199.717 193.53 200.87C187.53 198.66 183.73 185.62 183.73 185.62C170.57 184.03 157.25 175.35 157.25 175.35L158.8 174.96L159.48 174.79L167.73 172.73C172.91 177.98 184.05 181.59 184.05 181.59C186.102 178.624 187.008 175.014 186.6 171.43L196.89 172.18H197.43L198.43 172.25C196.5 178.44 186.5 184.85 186.5 184.85C196.17 185.85 206.37 189.99 206.37 189.99L202.91 192.76Z" fill="#00B8AD"/>
<path d="M183.43 184.44V184.94C175.43 184.58 163.55 177.83 158.82 174.94L159.5 174.77C164.43 177.77 175.8 184.09 183.43 184.44Z" fill="white"/>
<path d="M197.43 172.22C196.56 174.53 193.88 179.47 185.83 184.38L185.57 183.95C193.27 179.26 195.98 174.46 196.89 172.18L197.43 172.22Z" fill="white"/>
<path d="M183.43 183.51L185.04 182.91L187.24 184.38L186.46 186.77L183.42 186.15L183.43 183.51Z" fill="#00B8AD"/>
<path d="M184 180.67C184 180.67 186.36 173.81 185.35 169.86L194.82 172.49L188.56 173.75C188.56 173.75 186.15 178.63 184 180.67Z" fill="#00B8AD"/>
<path d="M184 180.67C184 180.67 172.93 176.85 168.45 171.67L164.16 176.75L171.16 177.08C171.16 177.08 179.29 180.34 184 180.67Z" fill="#00B8AD"/>
<path opacity="0.6" d="M184 180.67C184 180.67 186.36 173.81 185.35 169.86L194.82 172.49L188.56 173.75C188.56 173.75 186.15 178.63 184 180.67Z" fill="white"/>
<path opacity="0.6" d="M184 180.67C184 180.67 172.93 176.85 168.45 171.67L164.16 176.75L171.16 177.08C171.16 177.08 179.29 180.34 184 180.67Z" fill="white"/>
<path d="M163.8 143.9C163.771 141.577 164.365 139.289 165.521 137.273C166.676 135.258 168.351 133.589 170.37 132.44C177.5 128.09 184.48 130.76 186.85 135.71L163.8 143.9Z" fill="#00B8AD"/>
<path opacity="0.6" d="M163.8 143.9C163.771 141.577 164.365 139.289 165.521 137.273C166.676 135.258 168.351 133.589 170.37 132.44C177.5 128.09 184.48 130.76 186.85 135.71L163.8 143.9Z" fill="white"/>
<path d="M165.47 148.85C165.47 148.85 172.53 137.95 189.84 139.85L189.7 131.67C189.7 131.67 168.15 128.75 160.9 144.04L165.47 148.85Z" fill="#00B8AD"/>
<path opacity="0.7" d="M165.47 148.85C165.47 148.85 172.53 137.95 189.84 139.85L189.7 131.67C189.7 131.67 168.15 128.75 160.9 144.04L165.47 148.85Z" fill="white"/>
<path d="M214.76 184.8L201.3 180.72C200.3 180.42 199.14 181.48 198.66 183.08C198.18 184.68 198.57 186.21 199.55 186.5L213 190.58C214 190.87 215.16 189.82 215.64 188.22C216.12 186.62 215.74 185.09 214.76 184.8Z" fill="#263238"/>
<path opacity="0.2" d="M214.76 184.8L201.3 180.72C200.3 180.42 199.14 181.48 198.66 183.08C198.18 184.68 198.57 186.21 199.55 186.5L213 190.58C214 190.87 215.16 189.82 215.64 188.22C216.12 186.62 215.74 185.09 214.76 184.8Z" fill="white"/>
<path d="M230.11 188.65L214.71 184C213.49 183.63 212.01 184.95 211.4 186.94C210.79 188.93 211.3 190.86 212.52 191.23L227.92 195.9C229.14 196.27 230.62 194.95 231.23 192.95C231.84 190.95 231.33 189 230.11 188.65Z" fill="#263238"/>
<path opacity="0.3" d="M230.11 188.65L214.71 184C213.49 183.63 212.01 184.95 211.4 186.94C210.79 188.93 211.3 190.86 212.52 191.23L227.92 195.9C229.14 196.27 230.62 194.95 231.23 192.95C231.84 190.95 231.33 189 230.11 188.65Z" fill="white"/>
<path d="M242.51 191.4L230.4 187.74C228.87 187.27 227.01 188.93 226.25 191.43C225.49 193.93 226.12 196.35 227.65 196.81L239.76 200.48C241.29 200.94 243.15 199.29 243.91 196.78C244.67 194.27 244 191.87 242.51 191.4Z" fill="#263238"/>
<path opacity="0.4" d="M242.51 191.4L230.4 187.74C228.87 187.27 227.01 188.93 226.25 191.43C225.49 193.93 226.12 196.35 227.65 196.81L239.76 200.48C241.29 200.94 243.15 199.29 243.91 196.78C244.67 194.27 244 191.87 242.51 191.4Z" fill="white"/>
<path opacity="0.6" d="M243.91 196.78C243.15 199.29 241.29 200.94 239.76 200.48C238.23 200.02 237.6 197.61 238.36 195.1C239.12 192.59 240.98 190.94 242.51 191.4C244.04 191.86 244.67 194.28 243.91 196.78Z" fill="white"/>
<path d="M243.25 196.58C242.67 198.49 241.25 199.75 240.09 199.39C238.93 199.03 238.44 197.21 239.02 195.3C239.6 193.39 241.02 192.13 242.18 192.49C243.34 192.85 243.83 194.67 243.25 196.58Z" fill="#263238"/>
<path d="M195.2 197.81L205.46 192.76C205.46 192.76 207.46 183.18 207.46 182.91C207.46 182.64 214.05 186.91 214.46 187.66C214.87 188.41 212.46 197.66 211.3 197.81C210.337 197.812 209.388 197.586 208.53 197.15L198.36 203L195.2 197.81Z" fill="#EBB376"/>
<path d="M152.74 187.4C153.81 193.24 165.67 209.02 172.98 212.84C180.29 216.66 202.31 203 202.31 203L197.66 192.73C197.66 192.73 181.45 201.39 179.42 200.84C178.06 200.47 167.23 187.09 160.32 179.84C156.98 176.34 154.56 175.93 154.56 175.93C154.56 175.93 151.15 178.82 152.74 187.4Z" fill="#00B8AD"/>
<path opacity="0.6" d="M202.31 203C202.31 203 201.63 203.42 200.47 204.09L199.85 204.46C193.9 207.86 178.85 215.85 172.98 212.81C165.67 208.99 153.81 193.21 152.74 187.37C151.15 178.79 154.56 175.92 154.56 175.92C154.56 175.92 156.98 176.33 160.32 179.83C167.23 187.09 178.06 200.47 179.42 200.83C180.93 201.24 190.24 196.57 194.95 194.15L196 193.59L197.66 192.72L202.31 203Z" fill="white"/>
<path d="M200.47 204.12L199.85 204.49L194.95 194.19L196 193.63L200.47 204.12Z" fill="white"/>
</svg>
